<svg width="120" height="120" viewBox="0 0 120 120" fill="none" xmlns="http://www.w3.org/2000/svg">
<rect width="120" height="120" rx="14" fill="#EEEEEE"/>
<path d="M78 46.6701V47.25H65.6667V35H66.2505C66.8638 35 67.4519 35.242 67.8856 35.6727L77.3226 45.046C77.7563 45.4767 78 46.0609 78 46.6701ZM64.8958 50.3125C63.624 50.3125 62.5833 49.2789 62.5833 48.0156V35H43.3125C42.0353 35 41 36.0283 41 37.2969V81.7031C41 82.9717 42.0353 84 43.3125 84H75.6875C76.9647 84 78 82.9717 78 81.7031V50.3125H64.8958ZM51.8442 51.8438C54.3985 51.8438 56.4692 53.9004 56.4692 56.4375C56.4692 58.9746 54.3985 61.0312 51.8442 61.0312C49.2898 61.0312 47.2192 58.9746 47.2192 56.4375C47.2192 53.9004 49.2899 51.8438 51.8442 51.8438ZM71.8858 74.8125H47.2192L47.2659 70.1723L51.0733 66.3906C51.5249 65.9422 52.2102 65.9886 52.6617 66.437L56.4692 70.2188L66.4433 60.312C66.8948 59.8636 67.6269 59.8636 68.0785 60.312L71.8858 64.0938V74.8125Z" fill="#D6D6D6"/>
</svg>
