<svg width="103" height="149" viewBox="0 0 103 149" fill="none" xmlns="http://www.w3.org/2000/svg">
<path d="M81.6908 28.1316H39.0699V38.8334H81.6908V28.1316ZM78.1377 35.2675H42.6208V31.6996H78.1377V35.2675ZM31.9661 53.1009H49.7246V70.9342H31.9661V53.1009ZM88.7924 113.735H71.0361V95.8992H88.7924V113.735ZM102.983 44.0971V21H17.7606V74.5H0V117.3C0 123.202 4.78105 128 10.6547 128H92.3453C98.2092 128 102.983 123.206 102.983 117.318V44.2691C102.985 44.2408 103 44.2147 103 44.182C103 44.1537 102.985 44.1276 102.983 44.0971ZM17.7606 117.3C17.7606 121.234 14.574 124.434 10.6547 124.434C6.73746 124.434 3.55193 121.234 3.55193 117.3V78.0658H17.7606V117.3ZM58.6039 117.3H31.9661C30.9841 117.3 30.1907 116.504 30.1907 115.518C30.1907 114.531 30.9841 113.735 31.9661 113.735H58.6039C59.5859 113.735 60.3792 114.531 60.3792 115.518C60.3792 116.504 59.5859 117.3 58.6039 117.3ZM28.4153 49.5351H53.2754V74.5H28.4153V49.5351ZM58.6039 106.601H31.9661C30.9841 106.601 30.1907 105.802 30.1907 104.818C30.1907 103.832 30.9841 103.035 31.9661 103.035H58.6039C59.5859 103.035 60.3792 103.832 60.3792 104.818C60.3792 105.802 59.5859 106.601 58.6039 106.601ZM58.6039 95.8992H31.9661C30.9841 95.8992 30.1907 95.1023 30.1907 94.1162C30.1907 93.1323 30.9841 92.3334 31.9661 92.3334H58.6039C59.5859 92.3334 60.3792 93.1323 60.3792 94.1162C60.3792 95.1023 59.5859 95.8992 58.6039 95.8992ZM92.3453 117.3H67.483V92.3334H92.3453V117.3ZM90.5699 85.1996H31.9661C30.9841 85.1996 30.1907 84.4028 30.1907 83.4166C30.1907 82.4305 30.9841 81.6338 31.9661 81.6338H90.5699C91.5519 81.6338 92.3453 82.4305 92.3453 83.4166C92.3453 84.4028 91.5519 85.1996 90.5699 85.1996ZM90.5699 74.5H62.1547C61.1748 74.5 60.3792 73.7032 60.3792 72.7171C60.3792 71.731 61.1748 70.9342 62.1547 70.9342H90.5699C91.5519 70.9342 92.3453 71.731 92.3453 72.7171C92.3453 73.7032 91.5519 74.5 90.5699 74.5ZM90.5699 63.8004H62.1547C61.1748 63.8004 60.3792 63.0015 60.3792 62.0175C60.3792 61.0314 61.1748 60.2325 62.1547 60.2325H90.5699C91.5519 60.2325 92.3453 61.0314 92.3453 62.0175C92.3453 63.0015 91.5519 63.8004 90.5699 63.8004ZM90.5699 53.1009H62.1547C61.1748 53.1009 60.3792 52.3019 60.3792 51.318C60.3792 50.3318 61.1748 49.5351 62.1547 49.5351H90.5699C91.5519 49.5351 92.3453 50.3318 92.3453 51.318C92.3453 52.3019 91.5519 53.1009 90.5699 53.1009ZM99.4318 42.3991H21.3115V24.5658H99.4318V42.3991Z" fill="#323232"/>
<path d="M7.32422 30.9263L43.1519 30.9263C61.2183 30.9263 73.6694 42.9502 73.6694 61.0776C73.6694 79.144 60.791 91.229 42.2363 91.229H25.7568L25.7568 119H7.32422L7.32422 30.9263ZM25.7568 45.5137L25.7568 76.8247H38.208C48.7671 76.8247 54.9316 71.2095 54.9316 61.1387C54.9316 51.1289 48.8281 45.5137 38.269 45.5137L25.7568 45.5137Z" fill="white"/>
</svg>
